<svg width="149" height="25" viewBox="0 0 149 25" fill="none" xmlns="http://www.w3.org/2000/svg">
<path d="M12.5 0L15.3064 8.63729H24.3882L17.0409 13.9754L19.8473 22.6127L12.5 17.2746L5.15268 22.6127L7.95911 13.9754L0.611794 8.63729H9.69357L12.5 0Z" fill="#DEEC3C"/>
<path d="M43.5 0L46.3064 8.63729H55.3882L48.0409 13.9754L50.8473 22.6127L43.5 17.2746L36.1527 22.6127L38.9591 13.9754L31.6118 8.63729H40.6936L43.5 0Z" fill="#DEEC3C"/>
<path d="M74.5 0L77.3064 8.63729H86.3882L79.0409 13.9754L81.8473 22.6127L74.5 17.2746L67.1527 22.6127L69.9591 13.9754L62.6118 8.63729H71.6936L74.5 0Z" fill="#DEEC3C"/>
<path d="M105.5 0L108.306 8.63729H117.388L110.041 13.9754L112.847 22.6127L105.5 17.2746L98.1527 22.6127L100.959 13.9754L93.6118 8.63729H102.694L105.5 0Z" fill="#DEEC3C"/>
<path d="M136.5 0L139.306 8.63729H148.388L141.041 13.9754L143.847 22.6127L136.5 17.2746L129.153 22.6127L131.959 13.9754L124.612 8.63729H133.694L136.5 0Z" fill="#DEEC3C"/>
</svg>
